{
  "accessors": [
    {
      "bufferView": 2,
      "componentType": 5126,
      "count": 23371,
      "max": [
        12.6764497756958,
        15.530813217163086,
        13.671100616455078
      ],
      "min": [
        1.6153826713562012,
        -0.20828573405742645,
        -14.670302391052246
      ],
      "type": "VEC3"
    },
    {
      "bufferView": 2,
      "byteOffset": 280452,
      "componentType": 5126,
      "count": 23371,
      "max": [
        0.9999402165412903,
        0.9999983906745911,
        0.9999745488166809
      ],
      "min": [
        -0.9999810457229614,
        -0.999998927116394,
        -0.9998825788497925
      ],
      "type": "VEC3"
    },
    {
      "bufferView": 1,
      "componentType": 5126,
      "count": 23371,
      "max": [
        0.9975000023841858,
        0.9980000257492065
      ],
      "min": [
        0.0020000000949949026,
        -0.0051097869873046875
      ],
      "type": "VEC2"
    },
    {
      "bufferView": 0,
      "componentType": 5125,
      "count": 129024,
      "type": "SCALAR"
    },
    {
      "bufferView": 2,
      "byteOffset": 560904,
      "componentType": 5126,
      "count": 23371,
      "max": [
        -1.6153826713562012,
        15.530813217163086,
        13.671100616455078
      ],
      "min": [
        -12.6764497756958,
        -0.20828573405742645,
        -14.670302391052246
      ],
      "type": "VEC3"
    },
    {
      "bufferView": 2,
      "byteOffset": 841356,
      "componentType": 5126,
      "count": 23371,
      "max": [
        0.9999810457229614,
        0.9999983906745911,
        0.9999746084213257
      ],
      "min": [
        -0.9999402165412903,
        -0.999998927116394,
        -0.9998825788497925
      ],
      "type": "VEC3"
    },
    {
      "bufferView": 1,
      "byteOffset": 186968,
      "componentType": 5126,
      "count": 23371,
      "max": [
        0.9975000023841858,
        0.9980000257492065
      ],
      "min": [
        0.0020000000949949026,
        -0.0051097869873046875
      ],
      "type": "VEC2"
    },
    {
      "bufferView": 0,
      "byteOffset": 516096,
      "componentType": 5125,
      "count": 129024,
      "type": "SCALAR"
    }
  ],
  "asset": {
    "extras": {
      "author": "SRUSH651 2th☑ (https://sketchfab.com/THE-OFFICIAL-SRUSH651)",
      "license": "CC-BY-4.0 (http://creativecommons.org/licenses/by/4.0/)",
      "source": "https://sketchfab.com/3d-models/air-jordan-1-retro-high-bred-toe-fe36e9fced6d448c98a728437d2ebfaa",
      "title": "Air Jordan 1 Retro High Bred Toe"
    },
    "generator": "Sketchfab-16.56.0",
    "version": "2.0"
  },
  "bufferViews": [
    {
      "buffer": 0,
      "byteLength": 1032192,
      "name": "floatBufferViews",
      "target": 34963
    },
    {
      "buffer": 0,
      "byteLength": 373936,
      "byteOffset": 1032192,
      "byteStride": 8,
      "name": "floatBufferViews",
      "target": 34962
    },
    {
      "buffer": 0,
      "byteLength": 1121808,
      "byteOffset": 1406128,
      "byteStride": 12,
      "name": "floatBufferViews",
      "target": 34962
    }
  ],
  "buffers": [
    {
      "byteLength": 2527936,
      "uri": "scene.bin"
    }
  ],
  "images": [
    {
      "uri": "textures/lambert3_baseColor.jpeg"
    },
    {
      "uri": "textures/lambert4_baseColor.jpeg"
    }
  ],
  "materials": [
    {
      "doubleSided": true,
      "emissiveFactor": [
        1.0,
        1.0,
        1.0
      ],
      "emissiveTexture": {
        "index": 0
      },
      "name": "lambert3",
      "pbrMetallicRoughness": {
        "baseColorTexture": {
          "index": 0
        }
      }
    },
    {
      "doubleSided": true,
      "emissiveFactor": [
        1.0,
        1.0,
        1.0
      ],
      "emissiveTexture": {
        "index": 1
      },
      "name": "lambert4",
      "pbrMetallicRoughness": {
        "baseColorTexture": {
          "index": 1
        }
      }
    }
  ],
  "meshes": [
    {
      "name": "mesh_0_9_nr_lambert3_0",
      "primitives": [
        {
          "attributes": {
            "NORMAL": 1,
            "POSITION": 0,
            "TEXCOORD_0": 2
          },
          "indices": 3,
          "material": 0,
          "mode": 4
        }
      ]
    },
    {
      "name": "mesh_0_9_nr1_lambert4_0",
      "primitives": [
        {
          "attributes": {
            "NORMAL": 5,
            "POSITION": 4,
            "TEXCOORD_0": 6
          },
          "indices": 7,
          "material": 1,
          "mode": 4
        }
      ]
    }
  ],
  "nodes": [
    {
      "children": [
        1
      ],
      "matrix": [
        1.0,
        0.0,
        0.0,
        0.0,
        0.0,
        2.220446049250313e-16,
        -1.0,
        0.0,
        0.0,
        1.0,
        2.220446049250313e-16,
        0.0,
        0.0,
        0.0,
        0.0,
        1.0
      ],
      "name": "Sketchfab_model"
    },
    {
      "children": [
        2
      ],
      "matrix": [
        0.009999999776482582,
        0.0,
        0.0,
        0.0,
        0.0,
        2.2204459996194763e-18,
        0.009999999776482582,
        0.0,
        0.0,
        -0.009999999776482582,
        2.2204459996194763e-18,
        0.0,
        0.0,
        0.0,
        0.0,
        1.0
      ],
      "name": "USDRoot"
    },
    {
      "children": [
        3
      ],
      "name": "scene"
    },
    {
      "children": [
        4
      ],
      "matrix": [
        100.0,
        0.0,
        0.0,
        0.0,
        0.0,
        100.0,
        0.0,
        0.0,
        0.0,
        0.0,
        100.0,
        0.0,
        0.0,
        0.0,
        0.0,
        1.0
      ],
      "name": "Meshes"
    },
    {
      "children": [
        5
      ],
      "matrix": [
        1.0,
        0.0,
        0.0,
        0.0,
        0.0,
        2.220446049250313e-16,
        -1.0,
        0.0,
        0.0,
        1.0,
        2.220446049250313e-16,
        0.0,
        0.0,
        0.0,
        0.0,
        1.0
      ],
      "name": "Sketchfab_model"
    },
    {
      "children": [
        6
      ],
      "matrix": [
        0.009999999776482582,
        0.0,
        0.0,
        0.0,
        0.0,
        0.0,
        0.009999999776482582,
        0.0,
        0.0,
        -0.009999999776482582,
        0.0,
        0.0,
        0.0,
        0.0,
        0.0,
        1.0
      ],
      "name": "acad3d3ad51d4d78b33c5f3fa379cb84_fbx"
    },
    {
      "children": [
        7,
        10
      ],
      "name": "RootNode"
    },
    {
      "children": [
        8
      ],
      "name": "mesh_0_9_nr"
    },
    {
      "children": [
        9
      ],
      "name": "mesh_0_9_nr_lambert3_0"
    },
    {
      "mesh": 0,
      "name": "mesh_0_9_nr_lambert3_0"
    },
    {
      "children": [
        11
      ],
      "name": "mesh_0_9_nr1"
    },
    {
      "children": [
        12
      ],
      "name": "mesh_0_9_nr1_lambert4_0"
    },
    {
      "mesh": 1,
      "name": "mesh_0_9_nr1_lambert4_0"
    }
  ],
  "samplers": [
    {
      "magFilter": 9729,
      "minFilter": 9987,
      "wrapS": 10497,
      "wrapT": 10497
    }
  ],
  "scene": 0,
  "scenes": [
    {
      "name": "Sketchfab_Scene",
      "nodes": [
        0
      ]
    }
  ],
  "textures": [
    {
      "sampler": 0,
      "source": 0
    },
    {
      "sampler": 0,
      "source": 1
    }
  ]
}
